<?xml version="1.0" encoding="UTF-8" standalone="no"?>
<svg
   id="Logo"
   width="300"
   height="75.865082"
   viewBox="0 0 300 75.865084"
   version="1.1"
   sodipodi:docname="kellanova.svg"
   inkscape:version="1.3 (0e150ed6c4, 2023-07-21)"
   xmlns:inkscape="http://www.inkscape.org/namespaces/inkscape"
   xmlns:sodipodi="http://sodipodi.sourceforge.net/DTD/sodipodi-0.dtd"
   xmlns="http://www.w3.org/2000/svg"
   xmlns:svg="http://www.w3.org/2000/svg">
  <sodipodi:namedview
     id="namedview1"
     pagecolor="#505050"
     bordercolor="#eeeeee"
     borderopacity="1"
     inkscape:showpageshadow="0"
     inkscape:pageopacity="0"
     inkscape:pagecheckerboard="0"
     inkscape:deskcolor="#d1d1d1"
     inkscape:zoom="0.9983453"
     inkscape:cx="165.77431"
     inkscape:cy="70.61685"
     inkscape:window-width="1920"
     inkscape:window-height="991"
     inkscape:window-x="-9"
     inkscape:window-y="-9"
     inkscape:window-maximized="1"
     inkscape:current-layer="Logo" />
  <defs
     id="defs1" />
  <g
     id="Group_1"
     data-name="Group 1"
     clip-path="none"
     transform="matrix(1.8181584,0,0,1.8181584,0.00386851,6.0441428e-4)">
    <path
       id="Path_1"
       data-name="Path 1"
       d="m 115.36,32.66 a 5.187,5.187 0 0 1 -5.318,-5.442 5.34,5.34 0 1 1 10.678,0 5.22,5.22 0 0 1 -5.36,5.442 m 39.085,0.124 a 5.262,5.262 0 0 1 -5.4,-5.566 5.274,5.274 0 0 1 5.4,-5.525 5.341,5.341 0 0 1 5.484,5.525 5.327,5.327 0 0 1 -5.484,5.566 m -82.541,0 a 5.3,5.3 0 0 1 -5.442,-5.566 5.443,5.443 0 1 1 10.885,0 5.3,5.3 0 0 1 -5.447,5.566 M 30.716,25.4 a 4.886,4.886 0 0 1 5.154,-4 4.715,4.715 0 0 1 4.865,4 z m 5.525,12.2 a 9.782,9.782 0 0 0 8.04,-3.5 l -3.546,-3.051 a 5.235,5.235 0 0 1 -4.412,1.979 c -3.01,0 -4.865,-1.237 -5.525,-3.711 H 45.6 a 12.955,12.955 0 0 0 0.206,-2.1 c 0,-5.855 -4.164,-10.349 -9.936,-10.349 a 10.063,10.063 0 0 0 -10.39,10.35 c 0,5.937 4.164,10.39 10.761,10.39 m 117.256,0 a 7.7,7.7 0 0 0 6.432,-2.886 v 2.35 H 165 V 17.406 h -5.071 v 2.309 A 7.787,7.787 0 0 0 153.5,16.87 c -5.154,0 -9.524,4.535 -9.524,10.349 0,5.9 4.37,10.39 9.524,10.39 m -82.541,0 a 7.622,7.622 0 0 0 6.391,-2.886 v 2.35 h 5.071 V 17.406 h -5.075 v 2.309 A 7.706,7.706 0 0 0 70.955,16.87 c -5.195,0 -9.524,4.576 -9.524,10.349 0,5.855 4.329,10.39 9.524,10.39 m 14.1,-0.536 h 5.071 V 26.435 c 0,-3.257 1.732,-4.865 4.329,-4.865 a 3.683,3.683 0 0 1 3.876,4.041 v 11.461 h 5.069 v -12.08 c 0,-5.03 -3.133,-8.122 -7.421,-8.122 -2.68,0 -4.618,0.907 -5.855,2.762 v -2.226 h -5.068 z m 30.3,0.536 a 10.369,10.369 0 1 0 -10.39,-10.39 10.295,10.295 0 0 0 10.39,10.39 m 16.492,-0.536 h 6.061 c 1.649,-9.648 5.318,-16.533 9.648,-20.161 l -3.546,-3.051 a 26.892,26.892 0 0 0 -9.194,17.523 l -4.865,-13.977 h -5.566 z M 52.444,8.376 h -5.072 v 28.7 h 5.071 z m 7.3,0 h -5.03 v 28.7 h 5.03 z m -36.859,30.8 c -1.237,-0.082 -1.814,-1.525 -1.814,-3.3 0,-1.938 1.278,-6.1 1.773,-8.081 0.495,-2.02 0.7,-5.236 -1.113,-7.091 C 28.613,17.942 38.8,8.5 40.116,6.439 41.394,4.377 41.683,1.78 39.869,0.46 38.055,-0.86 35.127,0.831 33.4,3.346 c -4.783,6.885 -7.669,10.266 -10.926,13.111 -2.556,2.185 -3.793,2.226 -5.03,2.391 0.206,-0.33 4.7,-7.669 6.473,-9.978 2.1,-2.762 -0.495,-3.793 -3.01,-2.061 a 81.667,81.667 0 0 1 -9.318,5.607 C 3.01,16.828 0.948,18.89 0.948,21.529 A 2.573,2.573 0 0 0 3.5,24.167 c 3.381,0 6.679,-5.978 8.328,-7.5 0.619,-0.577 2.1,-1.855 2.639,-1.855 0.206,0 0.33,0.124 0.33,0.495 0,1.154 -2.226,4.412 -5.69,8.122 C 4.123,28.867 0,31.011 0,34.475 a 3.384,3.384 0 0 0 3.546,3.5 c 3.834,0 6.432,-5.154 7.957,-7.71 0.619,-1.031 4.041,-7.38 4.741,-8.741 0.783,0.371 1.237,1.2 0.99,2.886 -0.454,3.051 -3.175,6.72 -3.175,11.833 0,4.164 3.875,5.483 5.442,5.483 1.4,0 3.338,-0.523 3.793,-1.979 A 0.436,0.436 0 0 0 22.882,39.17"
       fill="#f60b45" />
  </g>
</svg>
